<mxfile host="app.diagrams.net" modified="2022-11-16T15:06:19.693Z" agent="5.0 (Windows NT 10.0; Win64; x64) AppleWebKit/537.36 (KHTML, like Gecko) Chrome/107.0.0.0 Safari/537.36" etag="xXipgBviy1164ikdqxOv" version="20.5.3" type="github">
  <diagram id="tHw6S3LKYtGlt6nIvbwv" name="Page-1">
    <mxGraphModel dx="789" dy="488" grid="0" gridSize="10" guides="1" tooltips="1" connect="1" arrows="1" fold="1" page="1" pageScale="1" pageWidth="850" pageHeight="1100" math="0" shadow="0">
      <root>
        <mxCell id="0" />
        <mxCell id="1" parent="0" />
        <mxCell id="5o7WYLSU8pOb1la1l7AX-12" style="edgeStyle=orthogonalEdgeStyle;rounded=0;orthogonalLoop=1;jettySize=auto;html=1;exitX=1;exitY=0.5;exitDx=0;exitDy=0;entryX=0;entryY=0.5;entryDx=0;entryDy=0;dashed=1;" edge="1" parent="1" source="5o7WYLSU8pOb1la1l7AX-1" target="5o7WYLSU8pOb1la1l7AX-3">
          <mxGeometry relative="1" as="geometry" />
        </mxCell>
        <mxCell id="5o7WYLSU8pOb1la1l7AX-1" value="&lt;br&gt;&lt;div style=&quot;color: rgb(212, 212, 212); font-family: Consolas, &amp;quot;Courier New&amp;quot;, monospace; font-weight: normal; font-size: 14px; line-height: 19px;&quot;&gt;&lt;div&gt;&lt;span style=&quot;color: #dcdcaa;&quot;&gt;SetupWithManager&lt;/span&gt;&lt;/div&gt;&lt;/div&gt;&lt;br&gt;" style="rounded=0;whiteSpace=wrap;html=1;fillColor=default;" vertex="1" parent="1">
          <mxGeometry x="205" y="116.5" width="147" height="71" as="geometry" />
        </mxCell>
        <mxCell id="5o7WYLSU8pOb1la1l7AX-13" style="edgeStyle=orthogonalEdgeStyle;rounded=0;orthogonalLoop=1;jettySize=auto;html=1;exitX=1;exitY=0.5;exitDx=0;exitDy=0;entryX=0;entryY=0.5;entryDx=0;entryDy=0;dashed=1;" edge="1" parent="1" source="5o7WYLSU8pOb1la1l7AX-2" target="5o7WYLSU8pOb1la1l7AX-4">
          <mxGeometry relative="1" as="geometry" />
        </mxCell>
        <mxCell id="5o7WYLSU8pOb1la1l7AX-2" value="Reconciler" style="rounded=0;whiteSpace=wrap;html=1;" vertex="1" parent="1">
          <mxGeometry x="205" y="335.75" width="148" height="68.5" as="geometry" />
        </mxCell>
        <mxCell id="5o7WYLSU8pOb1la1l7AX-11" style="edgeStyle=orthogonalEdgeStyle;rounded=0;orthogonalLoop=1;jettySize=auto;html=1;exitX=0.5;exitY=1;exitDx=0;exitDy=0;entryX=0.5;entryY=0;entryDx=0;entryDy=0;" edge="1" parent="1" source="5o7WYLSU8pOb1la1l7AX-3" target="5o7WYLSU8pOb1la1l7AX-4">
          <mxGeometry relative="1" as="geometry" />
        </mxCell>
        <mxCell id="5o7WYLSU8pOb1la1l7AX-15" style="edgeStyle=orthogonalEdgeStyle;rounded=0;orthogonalLoop=1;jettySize=auto;html=1;exitX=1;exitY=0.5;exitDx=0;exitDy=0;" edge="1" parent="1" source="5o7WYLSU8pOb1la1l7AX-3" target="5o7WYLSU8pOb1la1l7AX-8">
          <mxGeometry relative="1" as="geometry" />
        </mxCell>
        <mxCell id="5o7WYLSU8pOb1la1l7AX-3" value="Watcher" style="rounded=1;whiteSpace=wrap;html=1;" vertex="1" parent="1">
          <mxGeometry x="440" y="122" width="120" height="60" as="geometry" />
        </mxCell>
        <mxCell id="5o7WYLSU8pOb1la1l7AX-14" style="edgeStyle=orthogonalEdgeStyle;rounded=0;orthogonalLoop=1;jettySize=auto;html=1;exitX=0.5;exitY=1;exitDx=0;exitDy=0;entryX=0.5;entryY=0;entryDx=0;entryDy=0;" edge="1" parent="1" source="5o7WYLSU8pOb1la1l7AX-4" target="5o7WYLSU8pOb1la1l7AX-5">
          <mxGeometry relative="1" as="geometry" />
        </mxCell>
        <mxCell id="5o7WYLSU8pOb1la1l7AX-19" style="edgeStyle=orthogonalEdgeStyle;rounded=0;orthogonalLoop=1;jettySize=auto;html=1;exitX=1;exitY=0.5;exitDx=0;exitDy=0;entryX=-0.009;entryY=0.488;entryDx=0;entryDy=0;entryPerimeter=0;" edge="1" parent="1" source="5o7WYLSU8pOb1la1l7AX-4" target="5o7WYLSU8pOb1la1l7AX-6">
          <mxGeometry relative="1" as="geometry" />
        </mxCell>
        <mxCell id="5o7WYLSU8pOb1la1l7AX-4" value="Detect Services" style="rounded=1;whiteSpace=wrap;html=1;" vertex="1" parent="1">
          <mxGeometry x="440" y="340" width="120" height="60" as="geometry" />
        </mxCell>
        <mxCell id="5o7WYLSU8pOb1la1l7AX-5" value="Register Services" style="rounded=1;whiteSpace=wrap;html=1;" vertex="1" parent="1">
          <mxGeometry x="440" y="440" width="120" height="60" as="geometry" />
        </mxCell>
        <mxCell id="5o7WYLSU8pOb1la1l7AX-6" value="Service Created&lt;br&gt;Service Deleted&lt;br&gt;&lt;div style=&quot;&quot;&gt;Service Updated&lt;/div&gt;" style="text;html=1;align=left;verticalAlign=middle;resizable=0;points=[];autosize=1;strokeColor=none;fillColor=none;" vertex="1" parent="1">
          <mxGeometry x="603" y="340" width="110" height="60" as="geometry" />
        </mxCell>
        <mxCell id="5o7WYLSU8pOb1la1l7AX-18" value="" style="edgeStyle=orthogonalEdgeStyle;rounded=0;orthogonalLoop=1;jettySize=auto;html=1;" edge="1" parent="1" source="5o7WYLSU8pOb1la1l7AX-8" target="5o7WYLSU8pOb1la1l7AX-10">
          <mxGeometry relative="1" as="geometry" />
        </mxCell>
        <mxCell id="5o7WYLSU8pOb1la1l7AX-8" value="Check Pod-IP" style="text;html=1;align=center;verticalAlign=middle;resizable=0;points=[];autosize=1;strokeColor=none;fillColor=none;" vertex="1" parent="1">
          <mxGeometry x="607" y="139" width="92" height="26" as="geometry" />
        </mxCell>
        <mxCell id="5o7WYLSU8pOb1la1l7AX-10" value="Create JSON &lt;br&gt;Service FIle" style="rounded=1;whiteSpace=wrap;html=1;labelBackgroundColor=none;fillColor=default;" vertex="1" parent="1">
          <mxGeometry x="593" y="226" width="120" height="60" as="geometry" />
        </mxCell>
      </root>
    </mxGraphModel>
  </diagram>
</mxfile>
